<svg width="29" height="29" viewBox="0 0 29 29" fill="none" xmlns="http://www.w3.org/2000/svg">
<path d="M21.84 7.1625C21.7094 7.03178 21.5544 6.92806 21.3838 6.85726C21.213 6.78637 21.0298 6.74988 20.8448 6.74988C20.6599 6.74988 20.4767 6.78637 20.3059 6.85726L20.497 7.31775L20.3059 6.85726C20.1352 6.92807 19.9802 7.03182 19.8497 7.16257C19.8495 7.16272 19.8494 7.16287 19.8492 7.16302L7.16217 19.8501C6.89823 20.114 6.74995 20.472 6.74995 20.8452C6.74995 21.2185 6.89823 21.5765 7.16217 21.8404C7.42611 22.1044 7.78409 22.2526 8.15735 22.2526C8.53061 22.2526 8.88859 22.1044 9.15253 21.8404L21.8396 9.15337L21.4865 8.79937L21.84 9.15293L21.8398 9.15311C21.9707 9.02253 22.0745 8.86745 22.1453 8.69672C22.2162 8.52587 22.2527 8.34272 22.2527 8.15775C22.2527 7.97278 22.2162 7.78962 22.1453 7.61878C22.0745 7.4481 21.9707 7.29305 21.84 7.1625ZM21.84 7.1625C21.8401 7.16267 21.8403 7.16285 21.8405 7.16302L21.4865 7.51612L21.8396 7.16212C21.8397 7.16225 21.8398 7.16238 21.84 7.1625Z" fill="#42526E" stroke="#42526E"/>
<path d="M7.16308 7.16212C7.03212 7.29275 6.92822 7.44793 6.85732 7.61878C6.78643 7.78962 6.74994 7.97278 6.74994 8.15775C6.74994 8.34272 6.78643 8.52587 6.85732 8.69672C6.92817 8.86746 7.03199 9.02255 7.16283 9.15313C7.16291 9.15321 7.163 9.15329 7.16308 9.15337L19.8501 21.8404C20.1141 22.1044 20.472 22.2526 20.8453 22.2526C21.2186 22.2526 21.5765 22.1044 21.8405 21.8404C22.1044 21.5765 22.2527 21.2185 22.2527 20.8452C22.2527 20.472 22.1044 20.114 21.8405 19.8501L9.15343 7.16302C9.15335 7.16293 9.15327 7.16285 9.15319 7.16277C9.02261 7.03193 8.86752 6.92811 8.69678 6.85726C8.52593 6.78637 8.34278 6.74988 8.15781 6.74988C7.97284 6.74988 7.78969 6.78637 7.61884 6.85726C7.44799 6.92816 7.29281 7.03206 7.16218 7.16302L7.51618 7.51611L7.16308 7.16212Z" fill="#42526E" stroke="#42526E"/>
</svg>
