<svg width="19" height="19" viewBox="0 0 19 19" fill="none" xmlns="http://www.w3.org/2000/svg">
<g clip-path="url(#clip0_193_594)">
<path d="M15.8591 0.558127C15.5087 0.207797 14.9506 0.207797 14.6003 0.558127L7.8375 7.32092C7.73063 7.42188 7.65938 7.55248 7.61187 7.69498L6.5075 11.3822C6.41248 11.6969 6.50156 12.0353 6.73313 12.2669C6.89936 12.4391 7.13093 12.5281 7.3625 12.5281C7.4456 12.5281 7.53468 12.5162 7.61781 12.4925L11.305 11.3881C11.4475 11.3406 11.5781 11.2694 11.679 11.1625L18.4419 4.39967C18.6081 4.23344 18.7031 4.00781 18.7031 3.7703C18.7031 3.53283 18.6081 3.3072 18.4419 3.14093L15.8591 0.558127Z" fill="#159649"/>
<path d="M17.8125 8.60938C17.3205 8.60938 16.9219 9.0083 16.9219 9.5V15.4375C16.9219 16.2562 16.2559 16.9219 15.4375 16.9219H3.5625C2.74406 16.9219 2.07812 16.2562 2.07812 15.4375V3.5625C2.07812 2.74377 2.74406 2.07812 3.5625 2.07812H9.5C9.99199 2.07812 10.3906 1.6792 10.3906 1.1875C10.3906 0.695804 9.99199 0.296875 9.5 0.296875H3.5625C1.76183 0.296875 0.296875 1.76211 0.296875 3.5625V15.4375C0.296875 17.2379 1.76183 18.7031 3.5625 18.7031H15.4375C17.2382 18.7031 18.7031 17.2379 18.7031 15.4375V9.5C18.7031 9.0083 18.3045 8.60938 17.8125 8.60938Z" fill="#159649"/>
</g>
<defs>
<clipPath id="clip0_193_594">
<rect width="19" height="19" fill="white"/>
</clipPath>
</defs>
</svg>
