<svg width="19" height="16" viewBox="0 0 19 16" fill="none" xmlns="http://www.w3.org/2000/svg">
<g clip-path="url(#clip0_193_587)">
<path d="M7.07997 5.49346C6.92951 5.36676 6.73177 5.3 6.5313 5.3C6.33083 5.3 6.13309 5.36676 5.98263 5.49346C5.83114 5.62103 5.73755 5.80217 5.73755 6V12C5.73755 12.1978 5.83114 12.379 5.98263 12.5065C6.13309 12.6332 6.33083 12.7 6.5313 12.7C6.73177 12.7 6.92951 12.6332 7.07997 12.5065C7.23146 12.379 7.32505 12.1978 7.32505 12V6C7.32505 5.80217 7.23146 5.62103 7.07997 5.49346ZM10.0487 5.49346C9.89826 5.36676 9.70052 5.3 9.50005 5.3C9.29958 5.3 9.10184 5.36676 8.95138 5.49346C8.79989 5.62103 8.7063 5.80217 8.7063 6V12C8.7063 12.1978 8.79989 12.379 8.95138 12.5065C9.10184 12.6332 9.29958 12.7 9.50005 12.7C9.70052 12.7 9.89826 12.6332 10.0487 12.5065C10.2002 12.379 10.2937 12.1978 10.2937 12V6C10.2937 5.80217 10.2002 5.62103 10.0487 5.49346ZM13.2625 6C13.2625 5.80217 13.1689 5.62103 13.0174 5.49346C12.867 5.36676 12.6692 5.3 12.4688 5.3C12.2683 5.3 12.0705 5.36676 11.9201 5.49346C11.7686 5.62103 11.675 5.80217 11.675 6V12C11.675 12.1978 11.7686 12.379 11.9201 12.5065C12.0705 12.6332 12.2683 12.7 12.4688 12.7C12.6692 12.7 12.867 12.6332 13.0174 12.5065C13.1689 12.379 13.2625 12.1978 13.2625 12V6Z" fill="#E51156" stroke="#E51156" stroke-width="0.4"/>
<path d="M16.9677 3.82184C17.2205 3.60896 17.3688 3.31413 17.3688 3V2C17.3688 1.68587 17.2205 1.39104 16.9677 1.17816C16.7156 0.965917 16.3785 0.849998 16.0313 0.849998H12.0137C11.9746 0.593033 11.836 0.356757 11.6239 0.178155C11.3719 -0.0340822 11.0348 -0.150002 10.6876 -0.150002H8.3126C7.96541 -0.150002 7.62832 -0.0340822 7.37629 0.178155C7.1642 0.356757 7.0256 0.593033 6.98646 0.849998H2.96885C2.62166 0.849998 2.28457 0.965917 2.03254 1.17816C1.77974 1.39104 1.63135 1.68587 1.63135 2V3C1.63135 3.31413 1.77974 3.60896 2.03254 3.82184C2.28457 4.03408 2.62166 4.15 2.96885 4.15H3.4126V13C3.4126 13.5793 3.6861 14.1285 4.1616 14.5289C4.63633 14.9287 5.27547 15.15 5.9376 15.15H13.0626C13.7247 15.15 14.3639 14.9287 14.8386 14.5289C15.3141 14.1285 15.5876 13.5793 15.5876 13V4.15H16.0313C16.3785 4.15 16.7156 4.03408 16.9677 3.82184ZM4.9001 13V4.1586L4.92052 4.15H14.0797L14.1001 4.1586V13C14.1001 13.2163 13.9983 13.4302 13.8057 13.5924C13.6123 13.7552 13.3453 13.85 13.0626 13.85H5.9376C5.6549 13.85 5.3879 13.7552 5.19453 13.5924C5.00193 13.4302 4.9001 13.2163 4.9001 13ZM3.11885 2.85V2.15H15.8814V2.85H3.11885Z" fill="#E51156" stroke="#E51156" stroke-width="0.3"/>
</g>
<defs>
<clipPath id="clip0_193_587">
<rect width="19" height="16" fill="white"/>
</clipPath>
</defs>
</svg>
